<svg height="1em" viewBox="0 0 20 18" width="1em" xmlns="http://www.w3.org/2000/svg" class="bookTripPanel__inputIcon"><path d="M.768 0C.344 0 0 .36 0 .802V17.2c0 .442.344.801.768.801l18.462-.118c.425 0 .77-.359.77-.801V.802C20 .36 19.655 0 19.23 0H.768ZM19 11.4V17h-5.6v-5.6H19Zm-6.2 0V17H7.2v-5.6h5.6Zm-6.2 0V17H1v-5.6h5.6ZM19 5.2v5.6h-5.6V5.2H19Zm-6.2 0v5.6H7.2V5.2h5.6Zm-6.2 0v5.6H1V5.2h5.6Zm7.9-4.1c.83 0 1.5.672 1.5 1.503 0 .83-.67 1.5-1.5 1.5-.831 0-1.5-.67-1.5-1.5A1.5 1.5 0 0 1 14.5 1.1Zm-9 0a1.501 1.501 0 1 1-.002 3.002A1.501 1.501 0 0 1 5.5 1.1Z" fill="currentColor" fill-rule="evenodd"></path></svg>