<svg width="20px" height="20px" viewBox="0 0 20 20" version="1.1" xmlns="http://www.w3.org/2000/svg" xmlns:xlink="http://www.w3.org/1999/xlink">
    <title>Icon/flight</title>
    <g id="Visual-components" stroke="none" stroke-width="1" fill="none" fill-rule="evenodd">
        <g id="icons" transform="translate(-340.000000, -1327.000000)">
            <g id="Group" transform="translate(340.000000, 1327.000000)">
                <rect id="Rectangle" transform="translate(10.000000, 10.000000) scale(-1, -1) translate(-10.000000, -10.000000) " x="0" y="0" width="20" height="20"></rect>
                <path d="M14.3937525,8.92522458 L7.18842021,0 L6.05053721,0 L9.77669452,7.65074646 C10.2441968,8.60208104 8.55438387,8.77011569 8.55438387,8.77011569 L4.09358005,9.3298003 C3.98269001,9.22768694 2.29413715,6.96438958 2.29413715,6.96438958 L1,6.96438958 L2.41384799,9.62709235 C1.76488924,9.77961611 1.46498209,9.87526659 1.46498209,10.0006463 C1.46498209,10.126026 1.76488924,10.2203839 2.41384799,10.3729076 L1,13.0356104 L2.29413715,13.0356104 C2.29413715,13.0356104 3.98269001,10.7723131 4.09358005,10.6689071 L8.55438387,11.2285917 C8.55438387,11.2285917 10.2441968,11.3992115 9.77669452,12.3492535 L6.05053721,20 L7.18842021,20 L14.3937525,11.0773606 C14.3937525,11.0773606 15.4094044,11.1135526 16.8509749,11.0773606 C18.2963258,11.0385833 20,10.7141472 20,10.0006463 C20,9.2845602 18.2963258,8.96141666 16.8509749,8.92522458 C15.4094044,8.88773993 14.3937525,8.92522458 14.3937525,8.92522458 Z" id="Fill-1" fill="#387E79"></path>
            </g>
        </g>
    </g>
</svg>